<?xml version="1.0" encoding="utf-8"?>
<!-- Generator: Adobe Illustrator 19.2.1, SVG Export Plug-In . SVG Version: 6.00 Build 0)  -->
<svg version="1.1" id="Layer_1" xmlns="http://www.w3.org/2000/svg" xmlns:xlink="http://www.w3.org/1999/xlink" x="0px" y="0px"
	 viewBox="0 0 516.6 137.9" style="enable-background:new 0 0 516.6 137.9;" xml:space="preserve">
<style type="text/css">
	.st0{fill:#E86823;}
	.st1{fill:none;}
	.st2{fill:#03244D;}
	.st3{fill:#FFFFFF;}
</style>
<title>auburn-logo-horizontal</title>
<path class="st0" d="M156.4,40.3V18.1H108v9.3L92.5,0H64L48.4,27.5v-9.4H0v22.1h9.8c0,0,0,27,0,43.1H0.5v21.8h9.7
	c1,7.3,5.1,13.9,11.1,18.1c11.8,8.7,26,14.5,56.9,14.5s45.1-5.8,56.9-14.5c6.2-4.6,9.1-12,10.4-18.1H156V83.4h-9.3V40.3H156.4
	L156.4,40.3z M78.9,33.6l9.6,16.9H69.2L78.9,33.6z M37.6,47.1v-6.8H41L37.6,47.1z M112,106.2c-7.1,3.9-13.7,6.7-33.8,6.7
	s-26.7-2.8-33.8-6.7c-0.6-0.3-1.1-0.7-1.6-1h21V83.1H51L56.7,73h44.5l5.8,10.4H92.6v21.8h21C113.1,105.6,112.6,105.9,112,106.2
	L112,106.2z M119.1,47.1l-3.4-6.8h3.4V47.1z"/>
<polygon class="st1" points="69.2,50.6 88.5,50.6 78.9,33.7 "/>
<path class="st2" d="M114.1,110.1c-8,4.4-15.5,7.3-35.9,7.3s-27.9-2.9-35.9-7.3c-2.3-1.2-4.4-2.9-6.1-4.8H14.7
	c1,5.9,4.3,11.2,9.3,14.6c11.2,8.3,24.4,13.6,54.3,13.6s43-5.3,54.3-13.6c4.9-3.4,8.2-8.7,9.3-14.6h-21.5
	C118.5,107.2,116.4,108.9,114.1,110.1z"/>
<path class="st2" d="M123.3,35.3v19.4l16.2,28.7h2.7V35.8h9.8V22.5h-39.6v12.7L123.3,35.3L123.3,35.3z"/>
<path class="st2" d="M33.1,54.7V35.3H44V22.5H4.4v13.3h9.8v47.6H17L33.1,54.7z"/>
<path class="st2" d="M89.9,4.4l47,83.4h14.6v13H97v-13h17.5l-10.6-19.2H54.2L43.5,87.5h15.9v13.3H4.8v-13h14.6l47-83.4L89.9,4.4
	L89.9,4.4z M61.5,55h34.6L78.9,24.8L61.5,55z"/>
<path class="st0" d="M143.6,121c0-1.7,1.4-3,3.1-3c1.7,0,3,1.4,3,3.1s-1.4,3-3,3c-1.7,0-3-1.3-3.1-2.9
	C143.6,121.2,143.6,121.1,143.6,121z M146.6,124.8c2.1,0,3.7-1.8,3.7-3.8c0-2.1-1.8-3.7-3.8-3.7s-3.7,1.7-3.7,3.7
	c0,2.1,1.7,3.7,3.7,3.8C146.6,124.8,146.6,124.8,146.6,124.8z M145.8,121.3h0.8l1.1,1.9h0.7l-1.2-1.9c0.6,0,1.1-0.5,1.1-1.1
	c0,0,0,0,0-0.1c0-0.9-0.5-1.2-1.5-1.2h-1.6v4.3h0.6L145.8,121.3L145.8,121.3z M145.8,120.8v-1.3h0.9c0.5,0,1,0.1,1,0.6
	s-0.5,0.7-1.1,0.7L145.8,120.8L145.8,120.8z"/>
<path class="st3" d="M198.2,44c-1,3-3.7,9.3-3.7,12.1c0,3.7,4.1,3.7,6.9,4.1v0.9h-16.5v-0.9c5.4-1.4,5.9-2.6,7.8-7.3l6.8-17.7
	l3.6-9.8c0.5-1.6,1.3-3,0.7-4.1c1.7-0.7,3.2-1.8,4.4-3.3l13.2,35.2c1.6,4.4,2.6,6.1,7.5,7v0.9h-17.7v-0.9c2.1-0.5,4.6-1.1,4.6-3.9
	c0-2.5-2.3-8.2-3.9-12.4L198.2,44L198.2,44z M204.9,25.6l-5.6,15.6h11.9L204.9,25.6z"/>
<path class="st3" d="M286.6,20.3v0.9c-5.5,0.6-5.8,4-6.1,11.9l-0.4,13.2c-0.2,7.8-3.5,15.6-16.8,15.6c-18.6,0-16.7-13.5-16.7-18.3
	V30.1c-0.2-6.2-0.2-8-7.5-9v-0.9h20.8v0.9c-7.9,1.1-8,2.3-8,9v12.4c0,1.1-1.9,16.7,14.5,16.7c13,0,11.7-12.4,11.7-19.7v-6.3
	c0-7.6-0.6-11.1-9-11.9v-0.9L286.6,20.3L286.6,20.3z"/>
<path class="st3" d="M322.3,39.6c5.5,1.3,13.3,3.8,13.3,10.9c0,11.1-14.4,10.9-17.4,10.8l-16.5-0.1v-0.9c7.2-1,7.3-2.8,7.5-9V30.4
	c-0.2-6.2-0.2-8-7.1-8.9v-0.9l12.2-0.5c6.7-0.2,18.6,0.4,18.6,9.9c0,5.9-5.9,8.2-10.6,9.4V39.6L322.3,39.6z M314.5,50.8
	c0,4.7-0.3,9.1,5.8,9.1c5.2,0,8.9-3.4,8.9-8.7c0-3.7-3.4-10.9-12.4-10.5l-2.4,0.1L314.5,50.8L314.5,50.8z M314.5,39.5
	c5.6-0.1,12.5-1.6,12.5-8.5c0-7.2-6.4-9.4-12.5-9.4V39.5L314.5,39.5z"/>
<path class="st3" d="M400.8,20.3v0.9c-5.5,0.6-5.8,4-6.1,11.9l-0.4,13.2c-0.2,7.8-3.5,15.6-16.8,15.6c-18.6,0-16.7-13.5-16.7-18.3
	V30.1c-0.2-6.2-0.2-8-7.5-9v-0.9h20.8v0.9c-7.9,1.1-8,2.3-8,9v12.4c0,1.1-1.9,16.7,14.6,16.7c13,0,11.7-12.4,11.7-19.7v-6.3
	c0-7.6-0.6-11.1-9-11.9v-0.9L400.8,20.3L400.8,20.3z"/>
<path class="st3" d="M423.4,32.7c0-9.2-0.3-10.6-7-11.2v-0.8l14.7-0.5c15.2-0.5,16.4,6.9,16.4,9.8c0,5-3.1,7.9-7.5,9.9l0.3,0.4
	c4.6,8.1,10.4,18.5,20.3,20.5l-0.2,0.9c-6.4-0.3-11.1-0.1-14.5-3.7c-3.3-3.6-6.1-7.6-8.4-12c-2.4-5-4.6-3.5-8.8-4.3v9.7
	c0,6.6,0.1,7.8,8.4,9v0.9H416v-0.9c7.2-1,7.3-2.8,7.5-9L423.4,32.7L423.4,32.7z M428.7,40.6c5.8-0.1,12.5-2.7,12.5-9.4
	c0-7-6.2-9.9-12.5-9.8V40.6z"/>
<path class="st3" d="M508.8,51.7l-0.3-22c-0.1-5.7-1.6-7.4-8.4-8.6v-0.9h16.4v0.9c-4.2,0.5-4.9,2.8-5.4,6.7
	c-0.8,6.6-0.5,21.1-0.2,34.2l-0.8,0.2c-9.6-11.3-20.3-21.9-30.5-32.8v11c0,14.9-0.4,18,8.4,19.7V61h-18v-0.9c8.1-0.8,7.8-6.4,7.8-20
	v-9c0-6-1-8.4-8.6-10v-0.9h9.9L508.8,51.7z"/>
<polyline class="st0" points="515.6,87 515.6,84.6 184.1,84.6 184.1,87 "/>
<path class="st3" d="M229.4,110.6h8.3v0.7c-2.5,0.7-2.5,1.1-2.8,5.5l-0.2,4c-0.1,2.1-0.1,4.5-1.7,6.1c-1.7,1.5-3.9,2.3-6.2,2.2
	c-2.2,0.1-4.4-0.6-6.1-1.9c-1.9-1.7-1.6-4.3-1.6-6.5v-4.2c0-4.8-0.4-4.6-3.5-5.1v-0.7h10.5v0.7c-3.7,0.3-3.5,1.5-3.5,5.1v3.7
	c0,1.5-0.1,3.6,0.8,5c1.1,1.6,3.2,2.3,5.1,2.3c4.4,0,5-3.2,4.9-6.5l-0.2-6.5c-0.1-2.8-1.4-2.7-3.9-3.2L229.4,110.6L229.4,110.6z"/>
<path class="st3" d="M251.8,116.5c0-2.7-0.1-4.6-3.5-5.2v-0.7h6.1c3.3,4.4,8,8.8,11.8,13.2l0,0l-0.2-8.5c0-3.2-0.9-3.6-4-4v-0.7h8.1
	v0.7c-2.3,0.2-2.5,1.3-2.5,5.7v11.8l-1.2,0.6c-2.6-3.2-8.9-9.6-13.3-14.3c-0.1,3,0,5.8,0.2,8.7c0.1,3.3,0.7,3.5,3.8,4.1v0.7h-8.7
	v-0.7c1.9-0.4,3.3-0.3,3.3-3.9L251.8,116.5L251.8,116.5z"/>
<path class="st3" d="M288.1,122.7c0,4.8,0.3,4.6,3.5,5.1v0.7h-10.5v-0.7c3.2-0.5,3.5-0.4,3.5-5.1v-6.3c0-4.8-0.4-4.6-3.5-5.1v-0.7
	h10.5v0.7c-3.2,0.5-3.5,0.4-3.5,5.1V122.7L288.1,122.7z"/>
<path class="st3" d="M304.8,114.8c-1.3-3-1.4-2.8-3.5-3.5v-0.7h9.5v0.7c-3,0.7-3.2,0.7-1.5,4.6l3.7,8.8l2.3-5.8
	c2.9-7.2,2-7.1-1.4-7.6v-0.7h8.3v0.7c-2.5,0.3-3.1,2-4.9,6.3l-5,11.8l-1.1-0.2L304.8,114.8z"/>
<path class="st3" d="M339,120v3.5c0,2.7,0,4,3.6,4s4.9-1.9,5.7-5h0.8c0,2.1-0.3,4.1-1,6.1H332v-0.8c3.2-0.5,3.5-0.4,3.5-5.1v-6.3
	c0-4.8-0.4-4.6-3.5-5.1v-0.7h15.7l-0.5,4.6h-0.8c-0.2-3.5-2.5-3.5-5.5-3.5H339v6.8h2.3c2.3,0,3.5-0.2,4.1-2.6h0.7
	c-0.2,2.2-0.2,4.5-0.1,6.8h-0.7c-0.5-2.6-1.8-2.5-4.1-2.5L339,120L339,120z"/>
<path class="st3" d="M363.6,115.7c0-3.6-0.2-4.1-3.5-4.4v-0.7h8.3c3.3,0,7.7,0,7.7,4.2c-0.1,2-1.5,3.8-3.5,4.4c2,3.9,4.7,8,9.1,9.1
	l-0.1,0.7c-2.4-0.1-5.1,0.1-7.2-1.3c-1.4-1-2.9-3.5-3.7-4.9c-1.3-2.4-1.1-2.2-3.6-2.6v2.7c0,3.6-0.2,4.8,4.1,5.1v0.7h-11.1V128
	c3.2-0.5,3.5-0.4,3.5-5.1L363.6,115.7L363.6,115.7z M367.2,119.1c2.5-0.2,4.9-1.3,4.9-4.1s-2.5-3.5-4.9-3.5V119.1z"/>
<path class="st3" d="M402.5,115.9h-0.8c-0.5-2.2-1.1-4.6-3.9-4.6c-1.5,0-2.7,1.1-2.7,2.6c0,0.1,0,0.1,0,0.2c0,4.3,8.7,4,8.7,9.6
	c0,3.8-3.7,5.4-7.1,5.4c-1.9,0-3.7-0.5-5.4-1.4l-0.9-5.2l0.8-0.2c0.9,2.6,2.8,5.5,6,5.5c1.6,0.1,2.9-1.1,3-2.6c0-0.1,0-0.2,0-0.2
	c0-4.5-8.7-4.1-8.7-9.4c0-3.5,3.4-5.5,6.6-5.5c1.6,0,3.1,0.4,4.5,1.2L402.5,115.9z"/>
<path class="st3" d="M422,122.7c0,4.8,0.3,4.6,3.5,5.1v0.7H415v-0.7c3.2-0.5,3.5-0.4,3.5-5.1v-6.3c0-4.8-0.3-4.6-3.5-5.1v-0.7h10.5
	v0.7c-3.2,0.5-3.5,0.4-3.5,5.1V122.7L422,122.7z"/>
<path class="st3" d="M436,115.7l0.6-6h0.6c0.2,0.4,0.6,0.7,1,0.8c0.5,0.1,0.9,0.1,1.4,0h11.2c1,0,1.9,0.1,2.4-0.9h0.6l0.6,6
	l-0.7,0.1c-1.1-3.8-3-4.1-6.7-4.1v11c0,4.8,0.3,4.6,4,5.1v0.7h-11.5v-0.7c3.6-0.5,4-0.4,4-5.1v-11c-3.7,0-5.6,0.4-6.7,4.1H436z"/>
<path class="st3" d="M474.8,122.7c0,3.6-0.2,4.8,3.8,5.1v0.7h-11.2v-0.7c3.5-0.5,3.8-0.4,3.8-5.1v-1.3l-3-6
	c-1.2-2.4-1.5-3.6-4.5-4.2v-0.7h9.2v0.7c-1.9,0.5-2.7,0.3-1.2,3.5l2.3,4.9l1.4-2.9c2.3-4.6,1.8-4.8-0.6-5.5v-0.7h7.8v0.7
	c-2.3,0.5-3.3,1-4.4,3l-3,5.6l-0.5,1L474.8,122.7L474.8,122.7z"/>
</svg>
